<svg width="350" height="144" viewBox="0 0 350 144" fill="none" xmlns="http://www.w3.org/2000/svg">
<g clip-path="url(#clip0)">
<path d="M330.12 0H20C8.9543 0 0 8.9543 0 20V124.1C0 135.146 8.9543 144.1 20 144.1H330.12C341.166 144.1 350.12 135.146 350.12 124.1V20C350.12 8.9543 341.166 0 330.12 0Z" fill="url(#paint0_linear)"/>
<path d="M251.4 69.2L258.3 28.4H282.8L281.1 38.2H268.1L267.1 43.9H278.9L277.4 52.9H265.6L264.5 59.4H277.5L275.9 69.2H251.4ZM206.1 69.2L213 28.4H225L235.9 52.4L240 28.4H251L244 69.2H232.2L221.3 44.7L217.1 69.2H206.1ZM187.3 69.2L194.3 28.4H205.7L198.7 69.2H187.3ZM159.2 69.2L166.1 28.4H177.6L172.3 59.4H184.5L182.8 69.2H159.2ZM113.9 69.2L120.8 28.4H132.9L143.7 52.4L147.8 28.4H158.8L151.8 69.2H140L129.1 44.7L124.9 69.2H113.9ZM87.9 60.6C89.6817 60.5981 91.4347 60.1512 93 59.3C94.7962 58.4276 96.3183 57.0785 97.4 55.4C98.7912 53.4345 99.7147 51.177 100.1 48.8C100.552 46.6033 100.414 44.3261 99.7 42.2C99.1559 40.5767 98.0587 39.1963 96.6 38.3C95.1871 37.4326 93.5578 36.9819 91.9 37C90.1505 37.0059 88.4308 37.453 86.9 38.3C85.0912 39.1939 83.5419 40.5367 82.4 42.2C80.985 44.1425 80.09 46.4144 79.8 48.8C79.3254 50.9888 79.4288 53.2634 80.1 55.4C80.6769 57.0347 81.8094 58.415 83.3 59.3C84.6702 60.1806 86.2716 60.6331 87.9 60.6V60.6ZM86.3 70.3C82.3755 70.4589 78.488 69.487 75.1 67.5C72.1576 65.7566 69.9262 63.0293 68.8 59.8C67.5628 56.2691 67.2867 52.4728 68 48.8C68.6533 44.8107 70.1909 41.0181 72.5 37.7C74.9128 34.3814 78.0908 31.6941 81.7641 29.8661C85.4375 28.0381 89.4977 27.1236 93.6 27.2C97.4867 27.0978 101.327 28.0665 104.7 30C107.652 31.7579 109.912 34.4761 111.1 37.7C112.303 41.2746 112.544 45.1027 111.8 48.8C111.32 51.8084 110.34 54.7152 108.9 57.4C107.459 59.9864 105.562 62.2903 103.3 64.2C101.047 66.2055 98.434 67.7664 95.6 68.8C92.6056 69.8161 89.462 70.3231 86.3 70.3V70.3Z" fill="#FFE400"/>
<path d="M332.1 87.5L331.3 92.4H323.7L319.5 116.5H313L317.1 92.4H309.5L310.4 87.5H332.1ZM282.5 116.5L287.5 87.5H305.3L304.5 92.4H293.2L292 99.1H300.7L299.8 104H291.2L289.9 111.6H301.7L300.9 116.5H282.5ZM255 116.5L260 87.5H266.5L264.5 99.5H264.6L275.1 87.5H282.2L271.4 99.2L278.2 116.5H270.9L266.2 104.3L263.1 107.6L261.5 116.5H255ZM242.8 116.5L239.2 104.7H236.1L234 116.5H227.5L232.5 87.5H241.9C245.9 87.5 248.7 88.3 250.3 89.8C251.9 91.3 252.5 93.4 252 96.2C251.731 97.8771 251.043 99.4592 250 100.8C248.859 102.166 247.321 103.145 245.6 103.6L249.8 116.5H242.8ZM236.8 100.1H240.2C241.46 100.134 242.705 99.8231 243.8 99.2C244.287 98.8333 244.69 98.3672 244.983 97.8328C245.276 97.2983 245.453 96.7077 245.5 96.1C245.663 95.5671 245.685 95.0007 245.562 94.4569C245.439 93.9132 245.177 93.411 244.8 93C243.871 92.3363 242.739 92.018 241.6 92.1H238.2L236.8 100.1ZM197.7 116.5L211.1 87.5H219.5L222.7 116.5H216.5L215.9 110.4H206.9L204 116.5H197.7ZM208.9 105.5H215.4L214.2 93.8H214.1L208.9 105.5ZM162.4 116.5L167.4 87.5H176.5L179.1 106.5H179.2L188.4 87.5H197.5L192.5 116.5H187L190.9 93.7H190.8L179.9 116.5H175L172 93.7H171.9L168 116.5H162.4ZM149.8 116.5L146.2 104.7H143.1L141 116.5H134.5L139.5 87.5H148.9C152.9 87.5 155.6 88.3 157.3 89.8C159 91.3 159.5 93.4 159 96.2C158.731 97.8771 158.043 99.4592 157 100.8C155.859 102.166 154.321 103.145 152.6 103.6L156.8 116.5H149.8ZM143.8 100.1H147.2C148.46 100.134 149.705 99.8231 150.8 99.2C151.287 98.8333 151.69 98.3672 151.983 97.8328C152.276 97.2983 152.453 96.7077 152.5 96.1C152.663 95.5671 152.685 95.0007 152.562 94.4569C152.439 93.9132 152.177 93.411 151.8 93C150.871 92.3363 149.739 92.018 148.6 92.1H145.2L143.8 100.1ZM109.7 116.5L114.6 87.5H132.5L131.6 92.4H120.3L119.2 99.1H127.8L127 104H118.3L117 111.6H128.8L128 116.5H109.7ZM82.5 116.5L87.5 87.5H96.9C100.9 87.5 103.8 88.3 105.5 89.8C107.2 91.3 107.8 93.4 107.4 96.2C107.183 97.4878 106.707 98.7185 106.003 99.8183C105.298 100.918 104.379 101.864 103.3 102.6C101.1 104.1 98 104.9 93.9 104.9H91L89 116.5H82.5ZM91.8 100.3H95.3C98.5 100.3 100.4 98.9 100.8 96.2C101.2 93.5 99.9 92.1 96.7 92.1H93.2L91.8 100.3ZM63.9 87.5L60.4 107.8C60.2651 108.329 60.249 108.881 60.3527 109.417C60.4564 109.953 60.6775 110.46 61 110.9C61.4396 111.308 61.9615 111.618 62.5308 111.808C63.1 111.997 63.7033 112.063 64.3 112C67.4 112 69.2 110.6 69.6 107.8L73.1 87.5H79.6L76.2 107.8C75.9745 109.268 75.4282 110.668 74.6 111.9C73.9408 113.039 73.0141 114 71.9 114.7C70.7431 115.486 69.4567 116.061 68.1 116.4C66.588 116.725 65.0465 116.893 63.5 116.9C61.9859 116.904 60.4762 116.736 59 116.4C57.7894 116.08 56.6631 115.5 55.7 114.7C54.8519 113.97 54.2568 112.989 54 111.9C53.6586 110.558 53.6244 109.157 53.9 107.8L57.4 87.5H63.9ZM42.5 95.6C42.3656 94.4762 41.875 93.4248 41.1 92.6C40.7316 92.2792 40.3034 92.0345 39.84 91.88C39.3766 91.7255 38.8872 91.6643 38.4 91.7C37.4072 91.6767 36.4307 91.9557 35.6 92.5C34.9053 93.128 34.4465 93.975 34.3 94.9C34.2483 95.2595 34.2954 95.6263 34.4363 95.961C34.5773 96.2957 34.8067 96.5858 35.1 96.8L37.5 98.4L40.7 100C41.8182 100.525 42.8608 101.198 43.8 102C44.7506 102.766 45.5335 103.719 46.1 104.8C46.6051 106 46.7443 107.322 46.5 108.6C46.2949 109.808 45.8531 110.963 45.2 112C44.4899 113.01 43.6102 113.89 42.6 114.6C41.4787 115.384 40.2254 115.96 38.9 116.3C37.3683 116.715 35.7868 116.916 34.2 116.9C31.8553 116.973 29.5467 116.309 27.6 115C26.6739 114.223 25.92 113.261 25.3862 112.177C24.8525 111.092 24.5506 109.908 24.5 108.7L31.1 107.6C31.1092 108.351 31.2444 109.094 31.5 109.8C31.7501 110.351 32.0878 110.857 32.5 111.3L33.9 112.1L35.3 112.3C36.3696 112.322 37.4192 112.007 38.3 111.4C38.7291 111.121 39.0937 110.754 39.3696 110.323C39.6455 109.891 39.8264 109.406 39.9 108.9C40.0151 108.474 40.0107 108.025 39.8872 107.602C39.7637 107.178 39.5259 106.797 39.2 106.5C38.4921 105.828 37.722 105.226 36.9 104.7L33.7 103C32.5357 102.548 31.4543 101.906 30.5 101.1C29.5862 100.455 28.8053 99.6404 28.2 98.7C27.6213 97.6303 27.444 96.3889 27.7 95.2C27.8593 94.021 28.2616 92.888 28.8812 91.8724C29.5009 90.8569 30.3245 89.9809 31.3 89.3C33.7088 87.7495 36.5378 86.9811 39.4 87.1C40.6918 87.0793 41.9774 87.2823 43.2 87.7C44.2146 87.9825 45.1652 88.4578 46 89.1C46.7598 89.6866 47.3754 90.4391 47.8 91.3C48.2628 92.1658 48.5356 93.1204 48.6 94.1L42.5 95.6Z" fill="#FEFEFE"/>
</g>
<defs>
<linearGradient id="paint0_linear" x1="0" y1="0" x2="0" y2="20750.4" gradientUnits="userSpaceOnUse">
<stop stop-color="#258042"/>
<stop offset="1" stop-color="#006633"/>
</linearGradient>
<clipPath id="clip0">
<rect width="350" height="144" fill="white"/>
</clipPath>
</defs>
</svg>
